<?xml version="1.0" standalone="no"?>
<!DOCTYPE svg PUBLIC "-//W3C//DTD SVG 20010904//EN"
 "http://www.w3.org/TR/2001/REC-SVG-20010904/DTD/svg10.dtd">
<svg version="1.0" xmlns="http://www.w3.org/2000/svg"
 width="48.000000pt" height="48.000000pt" viewBox="0 0 48.000000 48.000000"
 preserveAspectRatio="xMidYMid meet">

<g transform="translate(0.000000,48.000000) scale(0.100000,-0.100000)"
fill="#000000" stroke="none">
<path d="M0 240 l0 -240 240 0 240 0 0 240 0 240 -240 0 -240 0 0 -240z m346
175 c132 -77 130 -274 -2 -351 -180 -106 -387 98 -281 278 60 102 180 133 283
73z"/>
<path d="M188 416 c-60 -22 -86 -43 -110 -89 -64 -124 23 -269 162 -269 141 0
227 149 159 274 -40 72 -138 111 -211 84z m120 -77 l53 -30 -3 -70 -3 -71 -58
-31 -57 -32 -58 31 -57 31 -3 70 -3 71 53 31 c29 17 60 31 68 31 8 0 39 -14
68 -31z"/>
</g>
</svg>
